:SAMPLES-PER-SECOND 25
:FULLY-SPECIFIED
:DEGREES
516
root  4.03499 56.4564 -47.0075 13.9135 20.1339 18.5642
RightUpLeg  -23.917 -16.7739 -16.7741
RightLeg  108.563 0.782946 -1.10625
RightFoot  -15.7666 -0.283041 -4.56612
RightToes  2.84633e-005 7.89722e-005 -0.000426369
Spine  13.7984 3.45876 0.805427
Spine1  28.0725 4.29453 2.50597
HEad  17.1464 -16.6982 -4.75546
LeftShoulder1  -3.88251e-019 0 -3.92111e-022
LeftArm  -33.6842 1.64604 -73.8989
LeftForeArm  15.4016 -10.2658 0.564202
LeftHand  -1.43652 -3.61606 18.6506
RightShoulder  7.45443e-017 -2.42657e-020 1.96277e-018
RightArm  -30.7575 17.13 47.1271
RightForeArm  -25.8378 -3.10005 -9.09891
RightHand  -1.85263 9.5674 -14.6604
LeftUpLeg  -85.077 -6.9378 -10.7157
LeftLeg  111.663 0.729737 -2.36805
LeftFoot  -32.5039 -0.0290035 -1.20526
LeftToes  3.91355e-005 3.11907e-005 -4.10385e-006
517
root  4.41222 56.4126 -46.8802 13.3818 19.4709 16.7454
RightUpLeg  -23.0748 -16.6957 -15.6451
RightLeg  108.737 -0.382137 1.98517
RightFoot  -13.4692 -0.190839 -5.31773
RightToes  2.84633e-005 7.89722e-005 -0.000426369
Spine  13.3762 2.88852 0.216838
Spine1  27.2286 3.35492 0.913707
HEad  16.1807 -15.1643 -3.05899
LeftShoulder1  -3.88251e-019 0 -3.92111e-022
LeftArm  -32.6259 -2.89999 -73.0168
LeftForeArm  16.1322 -13.712 -0.536217
LeftHand  -1.53519 -4.11405 18.8926
RightShoulder  7.45443e-017 -2.42657e-020 1.96277e-018
RightArm  -30.1956 15.7727 48.7842
RightForeArm  -24.9752 -3.07251 -8.63635
RightHand  -1.90296 9.24366 -15.36
LeftUpLeg  -85.1911 -7.65932 -9.28845
LeftLeg  112.639 0.0315381 -0.743676
LeftFoot  -33.0137 -0.0642833 -1.37652
LeftToes  3.91355e-005 3.11907e-005 -4.10385e-006
518
root  4.70891 56.4916 -46.7829 13.6818 19.3244 15.6438
RightUpLeg  -22.8426 -16.8971 -14.785
RightLeg  108.139 -0.677914 2.8175
RightFoot  -11.7543 -0.0894686 -4.73833
RightToes  2.84633e-005 7.89722e-005 -0.000426369
Spine  12.9282 2.44859 -0.495069
Spine1  26.3545 2.70266 -0.779479
HEad  15.455 -14.5547 -0.376793
LeftShoulder1  -3.88251e-019 0 -3.92111e-022
LeftArm  -30.974 -10.2114 -72.3132
LeftForeArm  17.8845 -16.2656 -1.61121
LeftHand  -1.6205 -4.76093 18.6695
RightShoulder  7.45443e-017 -2.42657e-020 1.96277e-018
RightArm  -29.4374 13.4914 49.1602
RightForeArm  -14.5217 -2.97245 -8.46235
RightHand  -1.56377 9.7899 -12.2835
LeftUpLeg  -85.4149 -8.64956 -8.37557
LeftLeg  112.625 -0.383033 0.159516
LeftFoot  -33.0782 -0.281403 -2.50614
LeftToes  3.91355e-005 3.11907e-005 -4.10385e-006
519
root  4.9637 56.7344 -46.6553 14.418 20.3549 15.4391
RightUpLeg  -22.1649 -17.8509 -14.8588
RightLeg  104.989 -1.38818 5.70424
RightFoot  -6.26352 0.106824 -3.20653
RightToes  2.84633e-005 7.89722e-005 -0.000426369
Spine  12.4352 1.88621 -0.98851
Spine1  25.4223 1.86213 -2.19575
HEad  15.0259 -15.2124 2.64606
LeftShoulder1  -3.88251e-019 0 -3.92111e-022
LeftArm  -29.2172 -18.6089 -73.0642
LeftForeArm  20.9528 -18.8836 -2.43216
LeftHand  -1.67078 -5.64688 17.769
RightShoulder  7.45443e-017 -2.42657e-020 1.96277e-018
RightArm  -28.3932 9.15046 48.4222
RightForeArm  -3.07807 -2.73733 -7.43394
RightHand  -1.65779 10.6178 -12.3319
LeftUpLeg  -85.1054 -9.93174 -8.63027
LeftLeg  111.892 -0.606727 0.677263
LeftFoot  -33.0112 -0.155503 -1.85378
LeftToes  3.91355e-005 3.11907e-005 -4.10385e-006
520
root  5.17223 57.1094 -46.4373 15.5272 22.4739 15.4681
RightUpLeg  -20.8063 -19.1954 -14.8217
RightLeg  99.8927 -2.04112 11.2342
RightFoot  1.89625 -0.161103 1.61107
RightToes  2.84633e-005 7.89722e-005 -0.000426369
Spine  11.9197 1.17207 -1.32288
Spine1  24.4932 0.760262 -3.56724
HEad  13.81 -16.1922 6.94982
LeftShoulder1  -3.88251e-019 0 -3.92111e-022
LeftArm  -24.7124 -27.8183 -74.0919
LeftForeArm  21.7436 -21.0767 -3.33257
LeftHand  -1.62594 -5.4479 17.608
RightShoulder  7.45443e-017 -2.42657e-020 1.96277e-018
RightArm  -27.6216 3.15003 47.2021
RightForeArm  2.96571 -2.65841 -5.12661
RightHand  -1.73849 11.1516 -12.5714
LeftUpLeg  -84.4545 -11.2474 -9.12019
LeftLeg  110.672 -0.439532 0.327822
LeftFoot  -32.8753 0.141165 -0.305039
LeftToes  3.91355e-005 3.11907e-005 -4.10385e-006
521
root  5.30944 57.5786 -46.1639 17.545 25.5038 15.6091
RightUpLeg  -19.8089 -20.8839 -13.8862
RightLeg  97.0601 -2.07612 14.7145
RightFoot  10.8679 -2.02593 10.678
RightToes  2.84633e-005 7.89722e-005 -0.000426369
Spine  11.2457 0.301766 -1.46118
Spine1  23.2984 -0.779696 -4.67398
HEad  10.6181 -17.4222 12.9913
LeftShoulder1  -3.88251e-019 0 -3.92111e-022
LeftArm  -16.5386 -37.8619 -74.7747
LeftForeArm  19.0247 -21.1753 -3.77304
LeftHand  -1.66603 -5.64563 17.7155
RightShoulder  7.45443e-017 -2.42657e-020 1.96277e-018
RightArm  -27.7776 -4.6688 44.8959
RightForeArm  3.2432 -1.96811 -3.28837
RightHand  -0.931486 9.7054 -7.53367
LeftUpLeg  -84.3997 -12.2602 -9.57475
LeftLeg  109.031 0.112802 -1.07107
LeftFoot  -32.1499 0.559396 1.98929
LeftToes  3.91355e-005 3.11907e-005 -4.10385e-006
